<svg xmlns="http://www.w3.org/2000/svg" viewBox="0 0 500 500"><g id="freepik--Shadow--inject-2"><ellipse id="freepik--path--inject-2" cx="250" cy="416.24" rx="193.89" ry="11.32" style="fill:#f5f5f5"></ellipse></g><g id="freepik--Character--inject-2"><path d="M312.78,143.09c-3.72-2.33-14.41,0-12.64,11.73s-12,8.7-9,22.31,27.36,33.81,42.36,20.09,2.37-19.78,2.64-36.06C336.31,151.48,331.92,134.15,312.78,143.09Z" style="fill:#263238"></path><path d="M334.88,196.63a.23.23,0,0,1-.17-.08.24.24,0,0,1,0-.35c9.24-9.18,7.11-14.77,4.4-21.85-1.49-3.92-3.18-8.35-3.32-14.11-.15-6.21-2.42-14.7-8.34-18.2-4.19-2.48-9.57-2-16,1.27a.25.25,0,0,1-.34-.1.26.26,0,0,1,.11-.34c6.58-3.41,12.12-3.83,16.47-1.26,6.09,3.6,8.43,12.28,8.58,18.62.13,5.67,1.81,10.06,3.29,13.94,2.77,7.25,4.95,13-4.52,22.38A.25.25,0,0,1,334.88,196.63Z" style="fill:#263238"></path><path d="M337,195.3s.15.22.26.36l.4.53q.42.54.9,1.08a25.76,25.76,0,0,0,2.09,2.09,34.32,34.32,0,0,0,4.83,3.71,49.05,49.05,0,0,0,5.48,3c.94.48,1.94.86,2.91,1.29.18.08,0,0-.12.08s-.24.14-.13.08a4.15,4.15,0,0,0,1.11-1.49,18.85,18.85,0,0,0,1.1-2.66,54,54,0,0,0,1.59-6.2c.44-2.15.78-4.35,1.08-6.56s.58-4.45.82-6.64l4,0a89.54,89.54,0,0,1-.1,14,48.31,48.31,0,0,1-1.1,7.17,23.83,23.83,0,0,1-1.21,3.74,11.11,11.11,0,0,1-2.78,4,6.68,6.68,0,0,1-3.17,1.53,6.79,6.79,0,0,1-3.47-.3c-1.15-.41-2.31-.75-3.44-1.22a48.18,48.18,0,0,1-6.64-3.2,41.86,41.86,0,0,1-6.11-4.41,30.8,30.8,0,0,1-2.74-2.74c-.43-.49-.86-1-1.27-1.54l-.6-.86a11.06,11.06,0,0,1-.66-1.06Z" style="fill:#ffc3bd"></path><path d="M335.68,191.68c9.11,5.82,8.37,9.41,8.37,9.41l-5.73,8.29s-14.6-5.86-15.53-10.44C321.83,194.17,331.26,188.86,335.68,191.68Z" style="fill:#263238"></path><path d="M335.68,191.68c9.11,5.82,8.37,9.41,8.37,9.41l-5.73,8.29s-14.6-5.86-15.53-10.44C321.83,194.17,331.26,188.86,335.68,191.68Z" style="fill:#fff;opacity:0.1"></path><path d="M344.55,200.27h0a.77.77,0,0,1,.19,1.08l-5.87,8.4a.77.77,0,0,1-1.08.19h0a.78.78,0,0,1-.2-1.09l5.87-8.39A.78.78,0,0,1,344.55,200.27Z" style="fill:#407BFF"></path><path d="M360,185.89l-4.52-6,8.68-2.24s1.76,5.39-1.12,9.33Z" style="fill:#ffc3bd"></path><polygon points="355.74 172.42 362.96 171.2 364.18 177.61 355.5 179.85 355.74 172.42" style="fill:#ffc3bd"></polygon><polygon points="282.26 407.82 290.53 408.61 296.43 389.19 288.17 388.39 282.26 407.82" style="fill:#ffc3bd"></polygon><polygon points="229.68 379.1 235.81 384.85 249.04 370.31 242.91 364.55 229.68 379.1" style="fill:#ffc3bd"></polygon><path d="M238.64,382.09l-4.61-8.3a.67.67,0,0,0-.83-.31l-7.09,2.7a1.37,1.37,0,0,0-.66,1.91c1.66,2.87,2.6,4.17,4.63,7.82,1.25,2.25,3.67,7.4,5.39,10.5s4.88,1.56,4.44.12c-2-6.48-1.59-10.09-1-12.95A2.18,2.18,0,0,0,238.64,382.09Z" style="fill:#263238"></path><path d="M291.5,406.09h-10a.83.83,0,0,0-.79.61l-2.18,7.93a1.25,1.25,0,0,0,1.22,1.59c3.53,0,5.21,0,9.62,0h13.47c3.66,0,4.43-3.7,2.91-4-6.79-1.51-10.71-3.58-12.81-5.56A2,2,0,0,0,291.5,406.09Z" style="fill:#263238"></path><polygon points="296.43 389.19 293.39 399.21 284.87 399.21 288.16 388.39 296.43 389.19" style="opacity:0.2"></polygon><polygon points="242.91 364.55 249.04 370.31 242.22 377.81 236.09 372.05 242.91 364.55" style="opacity:0.2"></polygon><path d="M335.68,191.68S339,193.94,318,239.57l-33.07-9.16c4.28-13.3,6.59-21.6,7.81-51a101.72,101.72,0,0,1,14.55,2,110.42,110.42,0,0,1,15,4.16A146.07,146.07,0,0,1,335.68,191.68Z" style="fill:#263238"></path><path d="M335.68,191.68S339,193.94,318,239.57l-33.07-9.16c4.28-13.3,6.59-21.6,7.81-51a101.72,101.72,0,0,1,14.55,2,110.42,110.42,0,0,1,15,4.16A146.07,146.07,0,0,1,335.68,191.68Z" style="fill:#fff;opacity:0.1"></path><path d="M313.45,165c-.39,5.09-1.9,14.21-6.17,16.49,0,0-2.48,8.46,8.3,11.56,9.13,2.63,6.72-7.4,6.72-7.4-5-2.78-1.92-7.7-1-13.21Z" style="fill:#ffc3bd"></path><path d="M313.45,165c-.31,4.09-1.34,10.79-4,14.44,3,.3,7.84-.63,9.2-2.89a33.09,33.09,0,0,0,1.69-5Z" style="opacity:0.2"></path><path d="M326.83,157.57c0,8.38.14,11.93-3.83,16.47-6,6.82-16.26,5-18.74-3.26-2.24-7.41-1.82-19.88,6.16-23.68A11.44,11.44,0,0,1,326.83,157.57Z" style="fill:#ffc3bd"></path><path d="M309.49,152.92c4.7,6.57,20.54,15.72,21.6,6.91s-7-17.52-15-16.68S305.48,147.32,309.49,152.92Z" style="fill:#263238"></path><path d="M330.3,165.39a6.13,6.13,0,0,1-3.52,3.09c-2,.68-3.16-1.12-2.68-3.1.43-1.78,2-4.28,4.11-4.1A2.75,2.75,0,0,1,330.3,165.39Z" style="fill:#ffc3bd"></path><path d="M318,239.57s11.77,47.69,4.05,83.76c-5.17,24.16-23.82,73-23.82,73l-14.59-.37s14.12-51.22,17-71.37c5-34.45-6.9-91.7-6.9-91.7Z" style="fill:#407BFF"></path><path d="M304.86,246.42l-7.3,11.5a350.84,350.84,0,0,1,4.18,41.19C312,280.76,307.14,256.14,304.86,246.42Z" style="opacity:0.2"></path><polygon points="300.82 397.06 282.26 396.6 283.5 390 302.18 391.4 300.82 397.06" style="fill:#263238"></polygon><path d="M310.74,237.67s-6.81,52.14-21.52,81.77c-11.88,23.93-43.58,58-43.58,58l-8.11-8.35s21.42-37,30.25-52.92c21.65-39,2.46-73.92,17.14-85.75Z" style="fill:#407BFF"></path><polygon points="246.46 378.55 236 368.35 239.47 363.63 250.87 375.42 246.46 378.55" style="fill:#263238"></polygon><path d="M285,228.34l-2.31,2.54c-.18.2,0,.51.41.62l34.68,9.6c.3.08.59,0,.66-.18l1.12-2.88c.07-.2-.14-.44-.46-.53l-33.49-9.27A.61.61,0,0,0,285,228.34Z" style="fill:#407BFF"></path><path d="M285,228.34l-2.31,2.54c-.18.2,0,.51.41.62l34.68,9.6c.3.08.59,0,.66-.18l1.12-2.88c.07-.2-.14-.44-.46-.53l-33.49-9.27A.61.61,0,0,0,285,228.34Z" style="fill:#fff;opacity:0.5"></path><path d="M288.42,233.33l-.9-.25c-.18-.05-.29-.18-.24-.29l1.48-3.73a.35.35,0,0,1,.41-.11l.89.25c.18.05.29.18.25.29l-1.49,3.73C288.78,233.33,288.6,233.38,288.42,233.33Z" style="fill:#407BFF"></path><path d="M315.13,240.72l-.9-.25c-.17-.05-.28-.18-.24-.29l1.48-3.73a.36.36,0,0,1,.41-.1l.9.24c.17,0,.28.18.24.29l-1.48,3.73A.35.35,0,0,1,315.13,240.72Z" style="fill:#407BFF"></path><path d="M301.78,237l-.9-.25c-.18,0-.29-.17-.25-.28l1.49-3.73c0-.11.22-.16.4-.11l.9.25c.18,0,.29.18.24.29l-1.48,3.72C302.14,237,302,237.07,301.78,237Z" style="fill:#407BFF"></path><path d="M314.29,160.65c0,.68-.29,1.25-.73,1.27s-.84-.5-.88-1.18.29-1.25.73-1.28S314.25,160,314.29,160.65Z" style="fill:#263238"></path><path d="M306.6,161.1c0,.68-.29,1.25-.73,1.28s-.84-.51-.88-1.19.29-1.25.73-1.28S306.56,160.42,306.6,161.1Z" style="fill:#263238"></path><path d="M305.92,159.94l-1.66-.38S305.17,160.79,305.92,159.94Z" style="fill:#263238"></path><path d="M308.7,162.15a18.15,18.15,0,0,1-2.17,4.48,2.9,2.9,0,0,0,2.45.31Z" style="fill:#ed847e"></path><path d="M312.77,169.26a7.34,7.34,0,0,1-1.24.19.17.17,0,0,1-.17-.16.15.15,0,0,1,.15-.17,5.42,5.42,0,0,0,4.3-2.39.19.19,0,0,1,.23-.06.17.17,0,0,1,.06.23A5.58,5.58,0,0,1,312.77,169.26Z" style="fill:#263238"></path><path d="M316.84,155.67a.32.32,0,0,1-.31-.08,3.27,3.27,0,0,0-2.8-1,.33.33,0,1,1-.15-.65,3.9,3.9,0,0,1,3.41,1.13.34.34,0,0,1,0,.47A.29.29,0,0,1,316.84,155.67Z" style="fill:#263238"></path><path d="M303.25,156.66a.34.34,0,0,1-.41-.5A3.93,3.93,0,0,1,306,154.5a.34.34,0,0,1,0,.67,3.18,3.18,0,0,0-2.61,1.39A.41.41,0,0,1,303.25,156.66Z" style="fill:#263238"></path><path d="M293.5,192c-.85,1.28-1.63,2.31-2.49,3.41s-1.72,2.11-2.61,3.13a74.54,74.54,0,0,1-5.73,5.79,62.08,62.08,0,0,1-6.38,5.14c-1.1.82-2.28,1.54-3.43,2.28l-1.8,1-.9.51c-.33.17-.76.4-1.17.57a10,10,0,0,1-5.77.76,10.9,10.9,0,0,1-5-2.38,17.11,17.11,0,0,1-3.17-3.49,27.47,27.47,0,0,1-2.2-3.72,56.64,56.64,0,0,1-4.76-15.48l3.86-.9c.8,2.32,1.71,4.72,2.73,7a47.36,47.36,0,0,0,3.39,6.49,16.91,16.91,0,0,0,4.21,4.85,4,4,0,0,0,2,.79,3.25,3.25,0,0,0,1.78-.43c.18-.09.31-.18.55-.32l.76-.49,1.51-1c1-.73,2-1.39,2.92-2.17a71.45,71.45,0,0,0,5.52-4.79c1.78-1.69,3.45-3.49,5.06-5.34.81-.93,1.59-1.87,2.35-2.82s1.53-2,2.13-2.82Z" style="fill:#ffc3bd"></path><path d="M252.76,192.21l.85-9.09-8.17,3.34s1,4.57,4.08,6.21Z" style="fill:#ffc3bd"></path><polygon points="251 178.21 244.67 176.83 245.44 186.46 253.61 183.12 251 178.21" style="fill:#ffc3bd"></polygon><path d="M292.73,179.41c-4.26,0-14.52,16.26-14.52,16.26l7.25,7.5s13.62-9.2,14.17-14.66C300.11,183.89,298.15,179.45,292.73,179.41Z" style="fill:#263238"></path><path d="M292.73,179.41c-4.26,0-14.52,16.26-14.52,16.26l7.25,7.5s13.62-9.2,14.17-14.66C300.11,183.89,298.15,179.45,292.73,179.41Z" style="fill:#fff;opacity:0.1"></path><path d="M286.13,203.5h0a.79.79,0,0,1-1.11,0l-7.31-7.17a.79.79,0,0,1,0-1.11h0a.78.78,0,0,1,1.1,0l7.32,7.17A.8.8,0,0,1,286.13,203.5Z" style="fill:#407BFF"></path><path d="M240.26,386.55a1.22,1.22,0,0,0,.73-.27.67.67,0,0,0,.29-.59c-.09-1.06-2.77-2.49-3.07-2.65a.19.19,0,0,0-.19,0,.17.17,0,0,0-.05.18c.3,1.08,1,2.93,2,3.27A1.26,1.26,0,0,0,240.26,386.55Zm-1.86-3c.92.53,2.49,1.54,2.54,2.19a.3.3,0,0,1-.15.3.78.78,0,0,1-.75.17C239.47,386,238.87,385,238.4,383.52Z" style="fill:#407BFF"></path><path d="M240.67,383.94a1.87,1.87,0,0,0,1.2-.3.64.64,0,0,0,.15-.82,1,1,0,0,0-.62-.59c-1.14-.41-3.26.76-3.35.81a.17.17,0,0,0-.09.14.18.18,0,0,0,.08.15A6.07,6.07,0,0,0,240.67,383.94Zm.16-1.47a1.35,1.35,0,0,1,.46.07.7.7,0,0,1,.43.41c.1.25,0,.37-.06.44-.5.42-2.26.18-3.16-.21A6.27,6.27,0,0,1,240.83,382.47Z" style="fill:#407BFF"></path><path d="M296,407.71a3.35,3.35,0,0,0,1.94-.46,1.22,1.22,0,0,0,.49-.94.53.53,0,0,0-.24-.51c-.91-.62-4.55,1.06-5,1.25a.17.17,0,0,0-.09.17.17.17,0,0,0,.12.15A13.57,13.57,0,0,0,296,407.71Zm1.6-1.72a.76.76,0,0,1,.41.08.23.23,0,0,1,.09.22.93.93,0,0,1-.36.7c-.83.62-2.82.36-3.9.15A12.54,12.54,0,0,1,297.55,406Z" style="fill:#407BFF"></path><path d="M293.25,407.37h.06c1.1-.45,3.39-2.29,3.27-3.2,0-.2-.16-.45-.66-.5-2-.23-2.8,3.35-2.83,3.51a.16.16,0,0,0,.05.16A.15.15,0,0,0,293.25,407.37Zm2.49-3.39h.14c.34,0,.36.17.37.21.08.58-1.56,2.08-2.75,2.7C293.75,406.06,294.48,404,295.74,404Z" style="fill:#407BFF"></path><path d="M313.61,159.49l-1.66-.38S312.86,160.34,313.61,159.49Z" style="fill:#263238"></path></g><g id="freepik--Smartphone--inject-2"><rect x="119.49" y="117.83" width="137.86" height="291.16" rx="13.96" transform="translate(417.6 492.24) rotate(170.53)" style="fill:#407BFF"></rect><path d="M113,221.33h0a3.88,3.88,0,0,0,3.19-4.46l-5.74-34.38a3.88,3.88,0,0,0-4.45-3.18h0a3.89,3.89,0,0,0-3.19,4.46l5.74,34.38A3.88,3.88,0,0,0,113,221.33Z" style="fill:#407BFF"></path><rect x="239.99" y="156.56" width="7.11" height="27.02" rx="2.95" transform="translate(511.74 297.76) rotate(170.53)" style="fill:#263238"></rect><rect x="245.86" y="191.8" width="7.11" height="27.02" rx="2.95" transform="translate(529.22 366.79) rotate(170.53)" style="fill:#263238"></rect><rect x="121.78" y="117.45" width="137.86" height="291.16" rx="13.96" transform="translate(422.1 491.1) rotate(170.53)" style="fill:#263238"></rect><path d="M148,400.23l127.66-21.29a2.55,2.55,0,0,0,2.09-2.93l-41.3-247.63a2.55,2.55,0,0,0-2.93-2.09L105.86,147.58a2.55,2.55,0,0,0-2.1,2.93l41.3,247.63A2.55,2.55,0,0,0,148,400.23Z" style="fill:#407BFF;opacity:0.4"></path><polygon points="216.66 129.1 220.68 388.11 194 392.56 189.98 133.55 216.66 129.1" style="fill:#407BFF;opacity:0.30000000000000004"></polygon><rect x="153.13" y="125.78" width="29.95" height="3.44" rx="1.19" transform="translate(-18.68 29.39) rotate(-9.47)" style="fill:#fff;opacity:0.2"></rect><path d="M162.14,222.17H296.26a13.19,13.19,0,0,1,13.15,13.16V301.1a13.19,13.19,0,0,1-13.15,13.16H249.85L229.2,334.91l-20.65-20.65H162.14A13.19,13.19,0,0,1,149,301.1V235.33A13.19,13.19,0,0,1,162.14,222.17Z" style="fill:#407BFF"></path><path d="M162.14,222.17H296.26a13.19,13.19,0,0,1,13.15,13.16V301.1a13.19,13.19,0,0,1-13.15,13.16H249.85L229.2,334.91l-20.65-20.65H162.14A13.19,13.19,0,0,1,149,301.1V235.33A13.19,13.19,0,0,1,162.14,222.17Z" style="fill:#fff;opacity:0.30000000000000004"></path><path d="M170.74,245v46.49a6.82,6.82,0,0,0,6.73,6.88H280.93a6.82,6.82,0,0,0,6.73-6.88V245a6.84,6.84,0,0,0-.5-2.57,6.73,6.73,0,0,0-6.23-4.31H177.47a6.74,6.74,0,0,0-6.23,4.3A6.93,6.93,0,0,0,170.74,245Z" style="fill:#fff"></path><path d="M171.24,242.39l50,21.79a19.87,19.87,0,0,0,15.89,0l50-21.78a6.73,6.73,0,0,0-6.23-4.31H177.47A6.74,6.74,0,0,0,171.24,242.39Z" style="opacity:0.1"></path><circle cx="162.26" cy="230.94" r="24.26" transform="translate(-115.77 182.38) rotate(-45)" style="fill:#407BFF"></circle><path d="M166.94,245.73h-5.65V224.44a19.47,19.47,0,0,1-7.3,4.28V223.6a16.21,16.21,0,0,0,4.81-2.75,10.38,10.38,0,0,0,3.55-4.71h4.59Z" style="fill:#fff"></path><path d="M271.85,104.05a2.91,2.91,0,0,1-2.86-2.47,33.57,33.57,0,0,0-38.14-28.17,2.9,2.9,0,1,1-.86-5.73,39.37,39.37,0,0,1,44.74,33,2.9,2.9,0,0,1-2.44,3.3A2.18,2.18,0,0,1,271.85,104.05Z" style="fill:#407BFF"></path><path d="M257.45,106.21a2.91,2.91,0,0,1-2.87-2.47A19,19,0,0,0,233,87.82a2.9,2.9,0,0,1-.87-5.74,24.79,24.79,0,0,1,28.17,20.8,2.9,2.9,0,0,1-2.44,3.3A3.11,3.11,0,0,1,257.45,106.21Z" style="fill:#407BFF"></path><path d="M243,108.38a2.91,2.91,0,0,1-2.87-2.47,4.38,4.38,0,0,0-5-3.68,2.9,2.9,0,0,1-.87-5.74,10.19,10.19,0,0,1,11.59,8.56,2.9,2.9,0,0,1-2.44,3.3A3.11,3.11,0,0,1,243,108.38Z" style="fill:#407BFF"></path></g></svg>